<?xml version="1.0" encoding="utf-8"?>
<!-- Generator: Adobe Illustrator 15.1.0, SVG Export Plug-In . SVG Version: 6.00 Build 0)  -->
<!DOCTYPE svg PUBLIC "-//W3C//DTD SVG 1.1//EN" "http://www.w3.org/Graphics/SVG/1.1/DTD/svg11.dtd">
<svg version="1.1" id="Ebene_1" xmlns="http://www.w3.org/2000/svg" xmlns:xlink="http://www.w3.org/1999/xlink" x="0px" y="0px"
	 width="50px" height="50px" viewBox="0 0 50 50" enable-background="new 0 0 50 50" xml:space="preserve">
<g>
	<g>
		<path fill="#FFFFFF" d="M38.753,35.007c0.644,5.511-4.239,10.608-10.904,11.387l0,0c-6.666,0.778-12.591-3.058-13.234-8.568
			l-1.302-11.157c-0.644-5.51,4.238-10.608,10.904-11.387l0,0c6.667-0.777,12.59,3.059,13.235,8.568L38.753,35.007z"/>
		<path d="M26.134,48.38c-6.947,0-12.705-4.444-13.393-10.337l-1.302-11.156c-0.378-3.233,0.766-6.427,3.222-8.991
			c2.362-2.467,5.678-4.06,9.336-4.487c0.642-0.075,1.292-0.112,1.933-0.112c6.946,0,12.704,4.443,13.394,10.335l1.302,11.157
			c0.763,6.535-4.87,12.581-12.559,13.479C27.425,48.342,26.774,48.38,26.134,48.38z M25.931,17.067
			c-0.495,0-0.998,0.029-1.496,0.087c-2.789,0.326-5.293,1.516-7.05,3.351c-1.663,1.737-2.444,3.848-2.2,5.944l1.302,11.156
			c0.466,3.992,4.613,7.002,9.646,7.002c0.495,0,0.999-0.029,1.496-0.087c5.622-0.657,9.771-4.826,9.25-9.294l-1.302-11.158
			C35.111,20.077,30.964,17.067,25.931,17.067z"/>
	</g>
	<g>
		<ellipse transform="matrix(0.9932 -0.1161 0.1161 0.9932 -3.4824 2.6657)" cx="21.145" cy="31.231" rx="2.642" ry="2.527"/>
	</g>
	<g>
		<ellipse transform="matrix(0.9932 -0.1161 0.1161 0.9932 -3.3126 3.7497)" cx="30.536" cy="30.314" rx="1.649" ry="1.577"/>
	</g>
	<g>
		<path fill="#00A096" d="M45.762,20.053c1.334,11.436-40.077,16.27-41.412,4.834S11.203,3.1,22.639,1.764
			C34.074,0.429,44.426,8.617,45.762,20.053z"/>
	</g>
	<g>
		
			<ellipse transform="matrix(0.9641 -0.2655 0.2655 0.9641 -4.4095 9.9979)" fill="#FFFFFF" cx="34.771" cy="21.307" rx="3.6" ry="3.72"/>
	</g>
	<g>
		<path d="M30.74,37.821c0.246,2.115-1.346,4.039-3.557,4.298c-2.211,0.257-4.204-1.248-4.451-3.364
			C22.486,36.64,30.493,35.704,30.74,37.821z"/>
	</g>
	<g>
		
			<ellipse transform="matrix(0.8874 -0.461 0.461 0.8874 -2.6451 14.6266)" fill="#FFFFFF" cx="28.619" cy="12.728" rx="2.569" ry="2.712"/>
	</g>
	<g>
		
			<ellipse transform="matrix(0.7699 -0.6382 0.6382 0.7699 1.2764 26.7449)" fill="#FFFFFF" cx="37.724" cy="11.603" rx="2.043" ry="2.304"/>
	</g>
</g>
</svg>
