<?xml version="1.0" encoding="utf-8"?>
<!-- Generator: Adobe Illustrator 15.1.0, SVG Export Plug-In . SVG Version: 6.00 Build 0)  -->
<!DOCTYPE svg PUBLIC "-//W3C//DTD SVG 1.1//EN" "http://www.w3.org/Graphics/SVG/1.1/DTD/svg11.dtd">
<svg version="1.1" id="Ebene_1" xmlns="http://www.w3.org/2000/svg" xmlns:xlink="http://www.w3.org/1999/xlink" x="0px" y="0px"
	 width="50px" height="50px" viewBox="0 0 50 50" enable-background="new 0 0 50 50" xml:space="preserve">
<g>
	<path fill="#FFFFFF" d="M38.621,33.195c0.653,4.851-3.574,9.424-9.443,10.214l0,0c-5.868,0.79-11.154-2.503-11.807-7.354
		l-1.322-9.821c-0.652-4.852,3.575-9.424,9.443-10.214l0,0c5.868-0.79,11.154,2.502,11.808,7.354L38.621,33.195z"/>
	<path d="M27.442,45.19c-6.097,0-11.025-3.749-11.721-8.914L14.4,26.455c-0.384-2.847,0.576-5.681,2.703-7.981
		c2.046-2.212,4.946-3.67,8.167-4.103c0.649-0.088,1.309-0.132,1.957-0.132c6.097,0,11.026,3.748,11.722,8.913l1.321,9.822
		c0.384,2.847-0.576,5.681-2.703,7.981c-2.046,2.213-4.946,3.67-8.167,4.104C28.75,45.146,28.092,45.19,27.442,45.19z
		 M27.228,17.566c-0.501,0-1.011,0.034-1.514,0.102c-2.455,0.331-4.646,1.419-6.167,3.064c-1.44,1.558-2.098,3.433-1.849,5.278
		l1.322,9.822c0.462,3.438,4.083,6.029,8.422,6.029c0.501,0,1.011-0.034,1.514-0.102c2.456-0.331,4.646-1.419,6.168-3.065
		c1.44-1.558,2.097-3.433,1.849-5.277l-1.321-9.823C35.188,20.158,31.566,17.566,27.228,17.566z"/>
</g>
<g>
	<g>
		<path d="M22.934,35.456l8.64-0.859c0,0-1.096,4.319-3.814,4.59C25.039,39.457,22.934,35.456,22.934,35.456z"/>
	</g>
	<g>
		<ellipse transform="matrix(0.9951 -0.099 0.099 0.9951 -2.8415 2.3335)" cx="22.103" cy="29.812" rx="2.196" ry="3.136"/>
	</g>
	<g>
		<ellipse transform="matrix(0.9951 -0.0988 0.0988 0.9951 -2.6974 3.2596)" cx="31.57" cy="28.871" rx="2.195" ry="3.135"/>
	</g>
</g>
<g>
	<path fill="#E2001A" d="M44.572,19.895C45.927,29.962,9.471,34.868,8.115,24.8C6.761,14.733,13.823,5.474,23.891,4.119
		S43.218,9.827,44.572,19.895z"/>
</g>
<g>
	
		<ellipse transform="matrix(0.9593 -0.2823 0.2823 0.9593 -5.4696 4.3837)" fill="#FFFFFF" cx="12.477" cy="21.171" rx="3.177" ry="3.282"/>
</g>
<g>
	
		<ellipse transform="matrix(0.8792 -0.4765 0.4765 0.8792 -4.4974 11.2717)" fill="#FFFFFF" cx="19.976" cy="14.503" rx="2.267" ry="2.393"/>
</g>
<g>
	
		<ellipse transform="matrix(0.7587 -0.6514 0.6514 0.7587 -10.0905 20.237)" fill="#FFFFFF" cx="22.272" cy="23.739" rx="1.803" ry="2.033"/>
</g>
</svg>
