<?xml version="1.0" encoding="utf-8"?>
<!-- Generator: Adobe Illustrator 15.1.0, SVG Export Plug-In . SVG Version: 6.00 Build 0)  -->
<!DOCTYPE svg PUBLIC "-//W3C//DTD SVG 1.1//EN" "http://www.w3.org/Graphics/SVG/1.1/DTD/svg11.dtd">
<svg version="1.1" id="Ebene_2" xmlns="http://www.w3.org/2000/svg" xmlns:xlink="http://www.w3.org/1999/xlink" x="0px" y="0px"
	 width="382.895px" height="43.947px" viewBox="0 0 382.895 43.947" enable-background="new 0 0 382.895 43.947"
	 xml:space="preserve">
<g>
	<g>
		<path fill-rule="evenodd" clip-rule="evenodd" fill="#FFFFFF" d="M341.265,8.146h7.948V0.072h-7.948V8.146z M341.265,17.146h7.948
			V9.072h-7.948V17.146z M341.265,26.146h7.948v-8.073h-7.948V26.146z M341.265,35.146h7.948v-8.073h-7.948V35.146z M341.265,44.146
			h7.948v-8.073h-7.948V44.146z M357.266,8.146h7.948V0.072h-7.948V8.146z M357.266,17.146h7.948V9.072h-7.948V17.146z
			 M357.266,26.146h7.948v-8.073h-7.948V26.146z M375.266,35.146h7.948v-8.073h-7.948V35.146z M375.266,44.146h7.948v-8.073h-7.948
			V44.146z M366.266,26.146h7.948v-8.073h-7.948V26.146z M357.266,44.146h7.948v-8.073h-7.948V44.146z M366.266,44.146h7.948v-8.073
			h-7.948V44.146z M375.266,26.146h7.948v-8.073h-7.948V26.146z M366.266,8.146h7.948V0.073h-7.948V8.146z M375.266,0.073v8.073
			h7.948V0.073H375.266z"/>
	</g>
</g>
<g>
	<path fill="#FFFFFF" d="M22.617,44.176V26.692H11.085v17.483H0.236V0.034h10.849v16.987h11.531V0.034h10.85v44.142H22.617z"/>
	<path fill="#FFFFFF" d="M70.108,39.588c-3.224,3.224-6.944,4.96-12.337,4.96s-9.113-1.736-12.337-4.96
		c-4.649-4.649-4.464-10.85-4.464-17.483S40.784,9.271,45.434,4.622c3.224-3.224,6.944-4.96,12.337-4.96s9.113,1.736,12.337,4.96
		c4.649,4.649,4.464,10.849,4.464,17.482S74.758,34.938,70.108,39.588z M62.111,11.256c-0.806-1.055-2.356-1.922-4.34-1.922
		s-3.534,0.867-4.34,1.922c-0.992,1.302-1.612,2.789-1.612,10.849s0.62,9.485,1.612,10.788c0.806,1.054,2.356,1.983,4.34,1.983
		s3.534-0.93,4.34-1.983c0.992-1.303,1.612-2.729,1.612-10.788S63.103,12.558,62.111,11.256z"/>
	<path fill="#FFFFFF" d="M104.394,44.176l-7.812-16.43h-3.658v16.43H82.076V0.034h17.483c9.795,0,15.065,6.943,15.065,14.197
		c0,6.014-3.72,9.795-7.191,11.531l9.547,18.413H104.394z M99.062,9.768h-6.138v8.928h6.138c2.976,0,4.712-2.17,4.712-4.464
		S102.039,9.768,99.062,9.768z"/>
	<path fill="#FFFFFF" d="M122.5,44.176V0.034h10.849v44.142H122.5z"/>
	<path fill="#FFFFFF" d="M139.672,44.176v-8.432l16.925-26.039h-16.181V0.034h29.2v8.432l-16.987,26.038h16.987v9.672H139.672z"/>
	<path fill="#FFFFFF" d="M203.655,39.588c-3.225,3.224-6.944,4.96-12.338,4.96s-9.113-1.736-12.337-4.96
		c-4.649-4.649-4.464-10.85-4.464-17.483s-0.186-12.833,4.464-17.482c3.224-3.224,6.943-4.96,12.337-4.96s9.113,1.736,12.338,4.96
		c4.649,4.649,4.464,10.849,4.464,17.482S208.304,34.938,203.655,39.588z M195.657,11.256c-0.806-1.055-2.355-1.922-4.34-1.922
		c-1.983,0-3.533,0.867-4.34,1.922c-0.991,1.302-1.611,2.789-1.611,10.849s0.62,9.485,1.611,10.788
		c0.807,1.054,2.356,1.983,4.34,1.983c1.984,0,3.534-0.93,4.34-1.983c0.992-1.303,1.612-2.729,1.612-10.788
		S196.649,12.558,195.657,11.256z"/>
	<path fill="#FFFFFF" d="M240.607,44.176L226.471,21.98v22.195h-10.849V0.034h9.485l14.135,22.194V0.034h10.85v44.142H240.607z"/>
	<path fill="#FFFFFF" d="M278.117,9.705v34.471h-10.85V9.705h-10.85V0.034h32.549v9.671H278.117z"/>
	<path fill="#FFFFFF" d="M295.292,44.176V0.034h30.006v9.671h-19.156v7.378h16.367v9.672h-16.367v7.749h19.156v9.672H295.292z"/>
</g>
</svg>
