<?xml version="1.0" encoding="utf-8"?>
<!-- Generator: Adobe Illustrator 15.1.0, SVG Export Plug-In . SVG Version: 6.00 Build 0)  -->
<!DOCTYPE svg PUBLIC "-//W3C//DTD SVG 1.1//EN" "http://www.w3.org/Graphics/SVG/1.1/DTD/svg11.dtd">
<svg version="1.1" id="Ebene_1" xmlns="http://www.w3.org/2000/svg" xmlns:xlink="http://www.w3.org/1999/xlink" x="0px" y="0px"
	 width="50px" height="50px" viewBox="0 0 50 50" enable-background="new 0 0 50 50" xml:space="preserve">
<g>
	<polygon fill="#81CDE6" points="37.399,16.793 13.782,11.833 3.863,23.196 7.17,34.506 25.354,38.166 39.997,36.631 46.138,25.758 
			"/>
	<g>
		
			<polygon fill="none" stroke="#000000" stroke-width="0.5" stroke-linecap="square" stroke-linejoin="bevel" stroke-miterlimit="10" points="
			13.782,11.833 3.863,23.196 7.17,34.506 25.354,38.166 39.997,36.631 46.138,25.758 37.399,16.793 		"/>
		
			<polygon fill="none" stroke="#000000" stroke-width="0.5" stroke-linecap="square" stroke-linejoin="bevel" stroke-miterlimit="10" points="
			17.089,22.417 32.676,29.074 37.399,16.793 38.808,27.55 39.997,36.631 24.499,32.351 		"/>
		
			<polyline fill="none" stroke="#000000" stroke-width="0.5" stroke-linecap="square" stroke-linejoin="bevel" stroke-miterlimit="10" points="
			3.863,23.196 17.089,22.417 7.17,34.506 13.782,11.833 32.676,29.074 		"/>
		
			<polyline fill="none" stroke="#000000" stroke-width="0.5" stroke-linecap="square" stroke-linejoin="bevel" stroke-miterlimit="10" points="
			25.354,38.166 24.499,32.351 38.736,27.005 		"/>
	</g>
</g>
</svg>
