<?xml version="1.0" encoding="utf-8"?>
<!-- Generator: Adobe Illustrator 15.1.0, SVG Export Plug-In . SVG Version: 6.00 Build 0)  -->
<!DOCTYPE svg PUBLIC "-//W3C//DTD SVG 1.1//EN" "http://www.w3.org/Graphics/SVG/1.1/DTD/svg11.dtd">
<svg version="1.1" id="Ebene_1" xmlns="http://www.w3.org/2000/svg" xmlns:xlink="http://www.w3.org/1999/xlink" x="0px" y="0px"
	 width="50px" height="50px" viewBox="0 0 50 50" enable-background="new 0 0 50 50" xml:space="preserve">
<g>
	<polygon points="44.14,9.971 37.372,19.708 28.278,5.961 17.915,3 16.224,9.971 19.135,18.225 4.38,15.161 4.38,15.478 
		9.456,36.204 19.606,48.047 29.97,46.144 35.046,48.047 41.391,36.415 45.62,23.938 	"/>
	<g>
		
			<polygon fill="none" stroke="#FFFFFF" stroke-width="0.5" stroke-linecap="square" stroke-linejoin="round" stroke-miterlimit="10" points="
			19.606,48.047 9.456,36.204 4.38,15.478 15.8,24.995 22.567,27.956 16.224,9.971 17.915,3 28.278,5.961 37.372,19.708 
			44.14,9.971 45.62,23.938 41.391,36.415 35.046,48.047 29.97,46.144 		"/>
		
			<line fill="none" stroke="#FFFFFF" stroke-width="0.5" stroke-linecap="square" stroke-linejoin="round" stroke-miterlimit="10" x1="24.128" y1="10.957" x2="18.021" y2="3.215"/>
		
			<path fill="none" stroke="#000000" stroke-width="0.5" stroke-linecap="square" stroke-linejoin="round" stroke-miterlimit="10" d="
			M16.224,9.971"/>
		
			<polyline fill="none" stroke="#FFFFFF" stroke-width="0.5" stroke-linecap="square" stroke-linejoin="round" stroke-miterlimit="10" points="
			32.455,32.45 37.372,19.708 40.121,23.938 35.226,47.717 		"/>
		
			<polyline fill="none" stroke="#FFFFFF" stroke-width="0.5" stroke-linecap="square" stroke-linejoin="round" stroke-miterlimit="10" points="
			4.38,15.161 19.135,18.225 15.426,24.683 		"/>
		
			<polyline fill="none" stroke="#FFFFFF" stroke-width="0.5" stroke-linecap="square" stroke-linejoin="round" stroke-miterlimit="10" points="
			9.456,36.204 22.567,27.956 32.455,32.45 24.128,10.957 28.278,5.961 		"/>
		
			<polyline fill="none" stroke="#FFFFFF" stroke-width="0.5" stroke-linecap="square" stroke-linejoin="round" stroke-miterlimit="10" points="
			29.97,46.144 22.567,27.956 19.606,48.047 32.455,32.45 35.046,48.047 		"/>
		
			<polyline fill="none" stroke="#FFFFFF" stroke-width="0.5" stroke-linecap="square" stroke-linejoin="round" stroke-miterlimit="10" points="
			45.62,23.938 40.121,23.938 44.14,10.244 		"/>
	</g>
</g>
</svg>
