<?xml version="1.0" encoding="utf-8"?>
<!-- Generator: Adobe Illustrator 15.1.0, SVG Export Plug-In . SVG Version: 6.00 Build 0)  -->
<!DOCTYPE svg PUBLIC "-//W3C//DTD SVG 1.1//EN" "http://www.w3.org/Graphics/SVG/1.1/DTD/svg11.dtd">
<svg version="1.1" id="Ebene_1" xmlns="http://www.w3.org/2000/svg" xmlns:xlink="http://www.w3.org/1999/xlink" x="0px" y="0px"
	 width="50px" height="50px" viewBox="0 0 50 50" enable-background="new 0 0 50 50" xml:space="preserve">
<g>
	<polygon fill="#E52D62" points="33.006,21.226 30.49,0.756 9.35,20.307 18.074,35.151 18.242,38.339 25.875,43.372 27.973,49.244 
		34.349,35.444 	"/>
	<g>
		<polygon fill="none" stroke="#000000" stroke-width="0.5" stroke-miterlimit="10" points="18.074,35.151 9.35,20.307 
			19.92,16.527 30.49,0.756 33.006,21.226 34.349,35.444 27.973,49.244 25.875,43.372 18.242,38.339 		"/>
		<polygon fill="none" stroke="#000000" stroke-width="0.5" stroke-miterlimit="10" points="23.443,26.259 19.92,16.527 
			33.006,21.226 27.973,49.244 24.617,35.99 18.074,35.151 		"/>
		<line fill="none" stroke="#000000" stroke-width="0.5" stroke-miterlimit="10" x1="9.35" y1="20.307" x2="30.49" y2="0.756"/>
		<polyline fill="none" stroke="#000000" stroke-width="0.5" stroke-miterlimit="10" points="24.617,35.99 33.006,21.226 
			23.443,26.259 		"/>
	</g>
</g>
</svg>
