<?xml version="1.0" encoding="utf-8"?>
<!-- Generator: Adobe Illustrator 15.1.0, SVG Export Plug-In . SVG Version: 6.00 Build 0)  -->
<!DOCTYPE svg PUBLIC "-//W3C//DTD SVG 1.1//EN" "http://www.w3.org/Graphics/SVG/1.1/DTD/svg11.dtd">
<svg version="1.1" id="Ebene_1" xmlns="http://www.w3.org/2000/svg" xmlns:xlink="http://www.w3.org/1999/xlink" x="0px" y="0px"
	 width="50px" height="50px" viewBox="0 0 50 50" enable-background="new 0 0 50 50" xml:space="preserve">
<g>
	<g>
		<path fill="#FFFFFF" d="M35.185,36.584c-0.972,5.105-6.766,8.29-12.94,7.113l0,0c-6.174-1.177-10.392-6.268-9.419-11.372
			l1.969-10.335c0.972-5.104,6.766-8.289,12.94-7.113l0,0c6.176,1.177,10.393,6.268,9.422,11.372L35.185,36.584z"/>
		<path d="M24.811,45.707c-0.962,0-1.937-0.092-2.897-0.274c-3.389-0.646-6.379-2.357-8.42-4.822
			c-2.12-2.561-2.975-5.62-2.404-8.617l1.969-10.334c0.985-5.177,5.965-8.793,12.109-8.793c0.963,0,1.938,0.093,2.896,0.276
			c7.121,1.356,11.978,7.385,10.825,13.438l-1.969,10.334C35.934,42.093,30.954,45.707,24.811,45.707z M25.168,16.399
			c-4.353,0-7.986,2.49-8.639,5.921L14.56,32.654c-0.37,1.942,0.218,3.969,1.655,5.703c1.518,1.831,3.776,3.112,6.36,3.604
			c0.743,0.142,1.495,0.213,2.236,0.213c4.353,0,7.985-2.488,8.64-5.919l1.969-10.336c0.788-4.139-2.808-8.314-8.015-9.306
			C26.661,16.471,25.91,16.399,25.168,16.399z"/>
	</g>
	<g>
		<ellipse transform="matrix(0.9823 0.1871 -0.1871 0.9823 5.6501 -3.3383)" cx="20.512" cy="28.267" rx="2.474" ry="2.367"/>
	</g>
	<g>
		<ellipse transform="matrix(0.9824 0.1869 -0.1869 0.9824 6.1373 -4.9205)" cx="29.16" cy="30.083" rx="1.544" ry="1.478"/>
	</g>
	<g>
		<path fill="#97BF0D" d="M45.646,25.189c-2.018,10.593-40.378,3.285-38.359-7.308C9.303,7.289,19.527,0.338,30.119,2.355
			C40.713,4.373,47.664,14.596,45.646,25.189z"/>
	</g>
	<g>
		
			<ellipse transform="matrix(0.9994 0.0358 -0.0358 0.9994 0.8533 -1.2538)" fill="#FFFFFF" cx="35.474" cy="23.224" rx="3.372" ry="3.485"/>
	</g>
	<g>
		<path d="M27.235,36.849c-0.374,1.959-2.336,3.231-4.386,2.843c-2.048-0.391-3.405-2.297-3.032-4.255
			C20.192,33.476,27.608,34.888,27.235,36.849z"/>
	</g>
	<g>
		
			<ellipse transform="matrix(0.9848 -0.1737 0.1737 0.9848 -1.9105 5.8368)" fill="#FFFFFF" cx="32.385" cy="13.831" rx="2.406" ry="2.54"/>
	</g>
	<g>
		
			<ellipse transform="matrix(0.9258 -0.3779 0.3779 0.9258 -2.7845 16.5746)" fill="#FFFFFF" cx="40.837" cy="15.382" rx="1.913" ry="2.158"/>
	</g>
</g>
</svg>
