<?xml version="1.0" encoding="utf-8"?>
<!-- Generator: Adobe Illustrator 15.1.0, SVG Export Plug-In . SVG Version: 6.00 Build 0)  -->
<!DOCTYPE svg PUBLIC "-//W3C//DTD SVG 1.1//EN" "http://www.w3.org/Graphics/SVG/1.1/DTD/svg11.dtd">
<svg version="1.1" id="Ebene_1" xmlns="http://www.w3.org/2000/svg" xmlns:xlink="http://www.w3.org/1999/xlink" x="0px" y="0px"
	 width="50px" height="50px" viewBox="0 0 50 50" enable-background="new 0 0 50 50" xml:space="preserve">
<g>
	<polygon fill="#81CDE6" points="37.732,16.46 14.116,11.5 4.196,22.863 7.503,34.173 25.688,37.833 40.33,36.298 46.471,25.425 	
		"/>
	<g>
		
			<polygon fill="none" stroke="#000000" stroke-width="0.5" stroke-linecap="square" stroke-linejoin="bevel" stroke-miterlimit="10" points="
			14.116,11.5 4.196,22.863 7.503,34.173 25.688,37.833 40.33,36.298 46.471,25.425 37.732,16.46 		"/>
		
			<polygon fill="none" stroke="#000000" stroke-width="0.5" stroke-linecap="square" stroke-linejoin="bevel" stroke-miterlimit="10" points="
			17.422,22.083 33.009,28.741 37.732,16.46 39.141,27.217 40.33,36.298 24.832,32.018 		"/>
		
			<polyline fill="none" stroke="#000000" stroke-width="0.5" stroke-linecap="square" stroke-linejoin="bevel" stroke-miterlimit="10" points="
			4.196,22.863 17.422,22.083 7.503,34.173 14.116,11.5 33.009,28.741 		"/>
		
			<polyline fill="none" stroke="#000000" stroke-width="0.5" stroke-linecap="square" stroke-linejoin="bevel" stroke-miterlimit="10" points="
			25.688,37.833 24.832,32.018 39.069,26.672 		"/>
	</g>
</g>
<g>
	<polygon fill="#A8C500" points="86.734,35.862 84.087,12.606 68.225,8.281 68.461,8.633 68.248,8.366 55.433,27.811 69.28,44.477 
		86.734,35.862 	"/>
	<g>
		
			<polygon fill="none" stroke="#000000" stroke-width="0.5" stroke-linecap="round" stroke-linejoin="bevel" stroke-miterlimit="10" points="
			55.433,27.811 68.248,8.366 80.9,24.229 69.28,44.477 		"/>
		
			<polyline fill="none" stroke="#000000" stroke-width="0.5" stroke-linecap="round" stroke-linejoin="bevel" stroke-miterlimit="10" points="
			55.433,27.811 65.564,22.835 68.248,8.366 		"/>
		
			<polyline fill="none" stroke="#000000" stroke-width="0.5" stroke-linecap="round" stroke-linejoin="bevel" stroke-miterlimit="10" points="
			86.734,35.862 82.029,32.334 80.9,24.229 65.564,22.835 69.28,44.477 86.734,35.862 84.087,12.606 68.225,8.281 		"/>
		
			<line fill="none" stroke="#000000" stroke-width="0.5" stroke-linecap="round" stroke-linejoin="bevel" stroke-miterlimit="10" x1="82.029" y1="32.334" x2="69.28" y2="44.477"/>
	</g>
</g>
<g>
	<polygon points="-10.406,7.284 -17.174,17.021 -26.268,3.274 -36.631,0.313 -38.323,7.284 -35.411,15.538 -50.166,12.475 
		-50.166,12.791 -45.09,33.518 -34.939,45.36 -24.576,43.457 -19.5,45.36 -13.155,33.729 -8.926,21.251 	"/>
	<g>
		
			<polygon fill="none" stroke="#FFFFFF" stroke-width="0.5" stroke-linecap="square" stroke-linejoin="round" stroke-miterlimit="10" points="
			-34.939,45.36 -45.09,33.518 -50.166,12.791 -38.746,22.309 -31.978,25.27 -38.323,7.284 -36.631,0.313 -26.268,3.274 
			-17.174,17.021 -10.406,7.284 -8.926,21.251 -13.155,33.729 -19.5,45.36 -24.576,43.457 		"/>
		
			<line fill="none" stroke="#FFFFFF" stroke-width="0.5" stroke-linecap="square" stroke-linejoin="round" stroke-miterlimit="10" x1="-30.418" y1="8.271" x2="-36.525" y2="0.528"/>
		
			<path fill="none" stroke="#000000" stroke-width="0.5" stroke-linecap="square" stroke-linejoin="round" stroke-miterlimit="10" d="
			M-38.323,7.284"/>
		
			<polyline fill="none" stroke="#FFFFFF" stroke-width="0.5" stroke-linecap="square" stroke-linejoin="round" stroke-miterlimit="10" points="
			-22.091,29.764 -17.174,17.021 -14.425,21.251 -19.32,45.03 		"/>
		
			<polyline fill="none" stroke="#FFFFFF" stroke-width="0.5" stroke-linecap="square" stroke-linejoin="round" stroke-miterlimit="10" points="
			-50.166,12.475 -35.411,15.538 -39.12,21.996 		"/>
		
			<polyline fill="none" stroke="#FFFFFF" stroke-width="0.5" stroke-linecap="square" stroke-linejoin="round" stroke-miterlimit="10" points="
			-45.09,33.518 -31.978,25.27 -22.091,29.764 -30.418,8.271 -26.268,3.274 		"/>
		
			<polyline fill="none" stroke="#FFFFFF" stroke-width="0.5" stroke-linecap="square" stroke-linejoin="round" stroke-miterlimit="10" points="
			-24.576,43.457 -31.978,25.27 -34.939,45.36 -22.091,29.764 -19.5,45.36 		"/>
		
			<polyline fill="none" stroke="#FFFFFF" stroke-width="0.5" stroke-linecap="square" stroke-linejoin="round" stroke-miterlimit="10" points="
			-8.926,21.251 -14.425,21.251 -10.406,7.558 		"/>
	</g>
</g>
<g>
	<polygon fill="#E52D62" points="117.932,20.604 115.416,0.135 94.275,19.686 103,34.53 103.168,37.718 110.801,42.751 
		112.898,48.623 119.274,34.823 	"/>
	<g>
		<polygon fill="none" stroke="#000000" stroke-width="0.5" stroke-miterlimit="10" points="103,34.53 94.275,19.686 
			104.846,15.906 115.416,0.135 117.932,20.604 119.274,34.823 112.898,48.623 110.801,42.751 103.168,37.718 		"/>
		<polygon fill="none" stroke="#000000" stroke-width="0.5" stroke-miterlimit="10" points="108.369,25.638 104.846,15.906 
			117.932,20.604 112.898,48.623 109.543,35.369 103,34.53 		"/>
		<line fill="none" stroke="#000000" stroke-width="0.5" stroke-miterlimit="10" x1="94.275" y1="19.686" x2="115.416" y2="0.135"/>
		<polyline fill="none" stroke="#000000" stroke-width="0.5" stroke-miterlimit="10" points="109.543,35.369 117.932,20.604 
			108.369,25.638 		"/>
	</g>
</g>
<g>
	<path fill="#F8EB65" d="M170.873,2.723l-30.301,21.75l-13.748,23.895l24.506-5.515l15.332-24.696l-4.059,0.581
		C163.353,17.962,170.873,2.723,170.873,2.723z"/>
	<g>
		<path fill="none" stroke="#FFFFFF" stroke-width="0.5" stroke-miterlimit="10" d="M151.33,42.854l-24.506,5.515l13.748-23.895
			l30.301-21.75c0,0-7.521,15.239-8.27,16.016l4.059-0.581L151.33,42.854z"/>
		<polyline fill="none" stroke="#FFFFFF" stroke-width="0.5" stroke-miterlimit="10" points="151.173,42.89 142.488,35.633 
			162.528,18.891 140.572,24.473 140.737,24.82 142.488,35.633 127.008,48.05 		"/>
		<line fill="none" stroke="#FFFFFF" stroke-width="0.5" stroke-miterlimit="10" x1="152.441" y1="21.456" x2="170.66" y2="3.153"/>
	</g>
</g>
<g>
	<polygon fill="#252867" points="-80.38,47.506 -66.66,29.652 -74.748,12.125 -85.31,0.89 -90.764,13.168 -90.764,13.168 
		-94.634,21.562 -80.646,47.852 -80.38,47.506 -80.38,47.506 	"/>
	<g>
		<polygon fill="none" stroke="#FFFFFF" stroke-width="0.5" stroke-miterlimit="10" points="-94.634,21.562 -85.31,1.339 
			-78.007,15.271 -74.748,12.125 -66.66,29.652 -80.646,47.852 		"/>
		<polygon fill="none" stroke="#FFFFFF" stroke-width="0.5" stroke-miterlimit="10" points="-83.596,23.922 -78.007,15.271 
			-66.66,29.652 		"/>
		<polyline fill="none" stroke="#FFFFFF" stroke-width="0.5" stroke-miterlimit="10" points="-80.38,47.506 -83.596,23.922 
			-94.634,21.562 		"/>
		<polyline fill="none" stroke="#FFFFFF" stroke-width="0.5" stroke-miterlimit="10" points="-90.764,13.168 -78.007,15.271 
			-74.748,12.125 -85.31,0.89 		"/>
	</g>
</g>
</svg>
